<svg id="SvgjsSvg1001" width="288" height="288" xmlns="http://www.w3.org/2000/svg" version="1.1" xmlns:xlink="http://www.w3.org/1999/xlink" xmlns:svgjs="http://svgjs.com/svgjs"><defs id="SvgjsDefs1002"></defs><g id="SvgjsG1008" transform="matrix(0.9167,0,0,0.9167,11.995198887825012,11.995200000000011)"><svg xmlns="http://www.w3.org/2000/svg" width="288" height="288" enable-background="new 0 0 511.998 512" viewBox="0 0 511.998 512"><path fill="#5e42a6" d="M511.998,256c0,141.383-114.617,256-255.998,256C114.613,512,0,397.383,0,256S114.613,0,256,0		C397.381,0,511.998,114.617,511.998,256z" class="colorE83709 svgShape"></path><path fill="#5052b5" d="M510.24,226.379L314.482,97.09v79.633h-6v7.332h-63.998v255.293l90.158,60.293
			C437.537,466.445,511.998,369.938,511.998,256C511.998,245.977,511.361,236.105,510.24,226.379z" class="colorC20A00 svgShape"></path><path fill="#f1c40f" d="M255.141,81.211c-125.441,0-117.414,144.949-98.914,178.965c15.039,27.66,34.668,36.969,34.668,73.168
				c0,0.191,0,0.719,0,1.512H314.85c0-0.793-0.008-1.32-0.008-1.512c-0.555-30.336,12.695-36.965,34.672-73.168
				C369.607,227.078,379.553,81.211,255.141,81.211z" class="colorF1C40F svgShape"></path><path fill="#f9a025" d="M256.667,81.242v281.93h58.135c0.023-16.68,0.063-28.719,0.039-29.828
				c-0.555-30.336,12.695-36.965,34.672-73.168C369.529,227.215,379.451,82.445,256.667,81.242z" class="colorF9A025 svgShape"></path><path fill="#58301e" d="M190.895,333.344c0,1.586,0.023,25.469,0.074,53.32h123.74c0.055-27.852,0.133-51.734,0.133-53.32
					H190.895z" class="color58301E svgShape"></path><polygon fill="#58301e" points="230.338 424.965 275.365 424.855 314.709 386.664 237.168 381.402 190.969 386.664" class="color58301E svgShape"></polygon><path fill="#3b2314" d="M256.667,333.344v53.32h58.042c0.055-27.852,0.133-51.734,0.133-53.32H256.667z" class="color3B2314 svgShape"></path><path fill="#ffffff" d="M230.338,424.965c4.465,9.176,10.98,15.773,22.451,15.773c11.467,0,18.092-7.297,22.576-15.883
				L230.338,424.965z" class="colorFFF svgShape"></path><g fill="#000000" class="color000 svgShape"><polygon fill="#3b2314" points="275.365 424.855 314.709 386.664 256.667 382.723 256.667 424.891" class="color3B2314 svgShape"></polygon></g></svg></g></svg>